<?xml version="1.0" encoding="UTF-8" standalone="no"?>
<svg
   xmlns:dc="http://purl.org/dc/elements/1.1/"
   xmlns:cc="http://creativecommons.org/ns#"
   xmlns:rdf="http://www.w3.org/1999/02/22-rdf-syntax-ns#"
   xmlns:svg="http://www.w3.org/2000/svg"
   xmlns="http://www.w3.org/2000/svg"
   xmlns:sodipodi="http://sodipodi.sourceforge.net/DTD/sodipodi-0.dtd"
   xmlns:inkscape="http://www.inkscape.org/namespaces/inkscape"
   viewBox="0 0 360 417"
   version="1.1"
   id="svg3111"
   inkscape:version="0.48.4 r9939"
   width="100%"
   height="100%"
   sodipodi:docname="android.svg">
  <metadata
     id="metadata3197">
    <rdf:RDF>
      <cc:Work
         rdf:about="">
        <dc:format>image/svg+xml</dc:format>
        <dc:type
           rdf:resource="http://purl.org/dc/dcmitype/StillImage" />
      </cc:Work>
    </rdf:RDF>
  </metadata>
  <defs
     id="defs3195" />
  <sodipodi:namedview
     pagecolor="#ffffff"
     bordercolor="#666666"
     borderopacity="1"
     objecttolerance="10"
     gridtolerance="10"
     guidetolerance="10"
     inkscape:pageopacity="0"
     inkscape:pageshadow="2"
     inkscape:window-width="912"
     inkscape:window-height="652"
     id="namedview3193"
     showgrid="false"
     showguides="true"
     inkscape:guide-bbox="true"
     inkscape:zoom="0.672"
     inkscape:cx="312.5"
     inkscape:cy="312.5"
     inkscape:window-x="422"
     inkscape:window-y="77"
     inkscape:window-maximized="0"
     inkscape:current-layer="svg3111" />
  <g
     id="g3208"
     transform="translate(-132.5,-43)">
    <path
       id="path3115"
       d="m 378.75,61.25 -15,22.5"
       inkscape:connector-curvature="0" />
    <path
       id="path3117"
       d="m 378.75,61.25 -15,22.5"
       inkscape:connector-curvature="0"
       style="fill:none;stroke:#ffffff;stroke-width:37.5;stroke-linecap:round" />
    <path
       id="path3119"
       d="m 246.25,61.25 15,22.5"
       inkscape:connector-curvature="0" />
    <path
       id="path3121"
       d="m 246.25,61.25 15,22.5"
       inkscape:connector-curvature="0"
       style="fill:none;stroke:#ffffff;stroke-width:37.5;stroke-linecap:round" />
    <path
       id="path3123"
       d="m 270,375 v 47.5"
       inkscape:connector-curvature="0" />
    <path
       id="path3125"
       d="m 270,375 v 47.5"
       inkscape:connector-curvature="0"
       style="fill:none;stroke:#ffffff;stroke-width:75;stroke-linecap:round" />
    <path
       id="path3127"
       d="m 355,375 v 47.5"
       inkscape:connector-curvature="0" />
    <path
       id="path3129"
       d="m 355,375 v 47.5"
       inkscape:connector-curvature="0"
       style="fill:none;stroke:#ffffff;stroke-width:75;stroke-linecap:round" />
    <path
       id="path3131"
       d="m 170,202.5 v 96.25"
       inkscape:connector-curvature="0" />
    <path
       id="path3133"
       d="m 170,202.5 v 96.25"
       inkscape:connector-curvature="0"
       style="fill:none;stroke:#ffffff;stroke-width:75;stroke-linecap:round" />
    <path
       id="path3135"
       d="m 455,202.5 v 96.25"
       inkscape:connector-curvature="0" />
    <path
       id="path3137"
       d="m 455,202.5 v 96.25"
       inkscape:connector-curvature="0"
       style="fill:none;stroke:#ffffff;stroke-width:75;stroke-linecap:round" />
    <path
       id="path3139"
       d="M 312.5,71.25 C 374.632,71.25 425,113.225 425,165 H 200 c 0,-51.775 50.369,-93.75 112.5,-93.75 z"
       inkscape:connector-curvature="0"
       style="fill:#a4c639" />
    <path
       id="path3141"
       d="m 312.5,71.25 c 62.132,0 112.5,41.975 112.5,93.75 0,51.778 -50.368,93.75 -112.5,93.75 C 250.369,258.75 200,216.778 200,165 200,113.225 250.369,71.25 312.5,71.25 z"
       inkscape:connector-curvature="0"
       style="fill:none;stroke:#ffffff;stroke-width:15;stroke-linecap:round" />
    <path
       id="path3143"
       d="M 425,172.5 H 200 V 345 c 0,17.26 13.991,31.25 31.25,31.25 h 162.5 C 411.01,376.25 425,362.26 425,345 V 172.5 z"
       inkscape:connector-curvature="0"
       style="fill:#a4c639" />
    <path
       id="path3145"
       d="M 425,172.5 H 200 V 345 c 0,17.26 13.991,31.25 31.25,31.25 h 162.5 C 411.01,376.25 425,362.26 425,345 V 172.5 z"
       inkscape:connector-curvature="0"
       style="fill:none;stroke:#ffffff;stroke-width:15;stroke-linecap:round" />
    <path
       id="path3147"
       d="m 267.5,112.5 c 6.214,0 11.25,5.038 11.25,11.25 0,6.214 -5.036,11.25 -11.25,11.25 -6.214,0 -11.25,-5.036 -11.25,-11.25 0,-6.212 5.036,-11.25 11.25,-11.25 z"
       inkscape:connector-curvature="0"
       style="fill:#ffffff" />
    <path
       id="path3149"
       d="m 357.5,112.5 c 6.214,0 11.25,5.038 11.25,11.25 0,6.214 -5.036,11.25 -11.25,11.25 -6.214,0 -11.25,-5.036 -11.25,-11.25 0,-6.212 5.036,-11.25 11.25,-11.25 z"
       inkscape:connector-curvature="0"
       style="fill:#ffffff" />
    <path
       id="path3151"
       d="m 378.75,61.25 -30,45"
       inkscape:connector-curvature="0" />
    <path
       id="path3153"
       d="m 378.75,61.25 -30,45"
       inkscape:connector-curvature="0"
       style="fill:none;stroke:#a4c639;stroke-width:7.5;stroke-linecap:round" />
    <path
       id="path3155"
       d="m 246.25,61.25 30,45"
       inkscape:connector-curvature="0" />
    <path
       id="path3157"
       d="m 246.25,61.25 30,45"
       inkscape:connector-curvature="0"
       style="fill:none;stroke:#a4c639;stroke-width:7.5;stroke-linecap:round" />
    <path
       id="path3159"
       d="m 270,375 v 47.5"
       inkscape:connector-curvature="0" />
    <path
       id="path3161"
       d="M 270,367.988 V 422.5"
       inkscape:connector-curvature="0"
       style="fill:none;stroke:#a4c639;stroke-width:45;stroke-linecap:round" />
    <path
       id="path3163"
       d="m 355,375 v 47.5"
       inkscape:connector-curvature="0" />
    <path
       id="path3165"
       d="m 355,367.988 v 56.483"
       inkscape:connector-curvature="0"
       style="fill:none;stroke:#a4c639;stroke-width:45;stroke-linecap:round" />
    <path
       id="path3167"
       d="m 170,202.5 v 96.25"
       inkscape:connector-curvature="0" />
    <path
       id="path3169"
       d="m 170,202.5 v 96.25"
       inkscape:connector-curvature="0"
       style="fill:none;stroke:#a4c639;stroke-width:45;stroke-linecap:round" />
    <path
       id="path3171"
       d="m 455,202.5 v 96.25"
       inkscape:connector-curvature="0" />
    <path
       d="m 455,202.5 v 96.25"
       id="path3175"
       inkscape:connector-curvature="0"
       style="fill:none;stroke:#a4c639;stroke-width:45;stroke-linecap:round" />
  </g>
</svg>
