<?xml version="1.0" encoding="UTF-8"?>
<svg xmlns="http://www.w3.org/2000/svg" viewBox="0 0 625 625" version="1.1"><path fill="#30587c" d="m0 0h625v625h-625v-625z"/><path d="m378.75 61.25-15 22.5"/><path d="m378.75 61.25-15 22.5" stroke="#fff" stroke-linecap="round" stroke-width="37.5" fill="none"/><path d="m246.25 61.25 15 22.5"/><path d="m246.25 61.25 15 22.5" stroke="#fff" stroke-linecap="round" stroke-width="37.5" fill="none"/><path d="m270 375v47.5"/><path d="m270 375v47.5" stroke="#fff" stroke-linecap="round" stroke-width="75" fill="none"/><path d="m355 375v47.5"/><path d="m355 375v47.5" stroke="#fff" stroke-linecap="round" stroke-width="75" fill="none"/><path d="m170 202.5v96.25"/><path d="m170 202.5v96.25" stroke="#fff" stroke-linecap="round" stroke-width="75" fill="none"/><path d="m455 202.5v96.25"/><path d="m455 202.5v96.25" stroke="#fff" stroke-linecap="round" stroke-width="75" fill="none"/><path fill="#A4C639" d="m312.5 71.25c62.132 0 112.5 41.975 112.5 93.75h-225c0-51.775 50.369-93.75 112.5-93.75z"/><path d="m312.5 71.25c62.132 0 112.5 41.975 112.5 93.75 0 51.778-50.368 93.75-112.5 93.75-62.131 0-112.5-41.972-112.5-93.75 0-51.775 50.369-93.75 112.5-93.75z" stroke="#fff" stroke-linecap="round" stroke-width="15" fill="none"/><path fill="#A4C639" d="m425 172.5h-225v172.5c0 17.26 13.991 31.25 31.25 31.25h162.5c17.26 0 31.25-13.99 31.25-31.25v-172.5z"/><path d="m425 172.5h-225v172.5c0 17.26 13.991 31.25 31.25 31.25h162.5c17.26 0 31.25-13.99 31.25-31.25v-172.5z" stroke="#fff" stroke-linecap="round" stroke-width="15" fill="none"/><path d="m267.5 112.5c6.214 0 11.25 5.038 11.25 11.25 0 6.214-5.036 11.25-11.25 11.25s-11.25-5.036-11.25-11.25c0-6.212 5.036-11.25 11.25-11.25z" fill="#fff"/><path d="m357.5 112.5c6.214 0 11.25 5.038 11.25 11.25 0 6.214-5.036 11.25-11.25 11.25s-11.25-5.036-11.25-11.25c0-6.212 5.036-11.25 11.25-11.25z" fill="#fff"/><path d="m378.75 61.25-30 45"/><path d="m378.75 61.25-30 45" stroke="#A4C639" stroke-linecap="round" stroke-width="7.5" fill="none"/><path d="m246.25 61.25 30 45"/><path d="m246.25 61.25 30 45" stroke="#A4C639" stroke-linecap="round" stroke-width="7.5" fill="none"/><path d="m270 375v47.5"/><path d="m270 367.988v54.512" stroke="#A4C639" stroke-linecap="round" stroke-width="45" fill="none"/><path d="m355 375v47.5"/><path d="m355 367.988v56.483" stroke="#A4C639" stroke-linecap="round" stroke-width="45" fill="none"/><path d="m170 202.5v96.25"/><path d="m170 202.5v96.25" stroke="#A4C639" stroke-linecap="round" stroke-width="45" fill="none"/><path d="m455 202.5v96.25"/><g fill="none"><path d="m455 202.5v96.25" stroke="#A4C639" stroke-linecap="round" stroke-width="45"/><g stroke="#fff" stroke-width="15" stroke-linecap="square"><path d="m72.5 587.5c-16.5686 0-30-13.431-30-30 0-16.568 13.4314-30 30-30h30v60"/><path d="m132.5 587.5v-30c0-16.568 13.431-30 30-30s30 13.432 30 30v30"/><path d="m222.5 587.5h30c16.569 0 30-13.431 30-30 0-16.568-13.431-30-30-30h-30"/><path d="m312.5 565h41.25c10.355 0 18.75-8.392 18.75-18.75 0-10.355-8.395-18.75-18.75-18.75h-41.25m60 60c0-12.425-10.074-22.5-22.5-22.5"/><path d="m432.5 527.5c16.569 0 30 13.432 30 30 0 16.569-13.431 30-30 30-16.568 0-30-13.431-30-30 0-16.568 13.432-30 30-30z"/><path d="m492.5 587.5v-60"/><path d="m522.5 587.5h30c16.569 0 30-13.431 30-30 0-16.568-13.431-30-30-30h-30"/></g></g></svg>